# xmcd CD database file
#
# Track frame offsets:
#	150
#	20508
#	45448
#	81480
#	105940
#	133778
#	151320
#	188740
#	210818
#	231488
#
# Disc length: 3420 seconds
#
# Revision: 0
# Processed by: cddbd v1.5.1PL0 Copyright (c) Steve Scherf et al.
# Submitted via: CDex 1.50
#
DISCID=770d5a0a
DTITLE=YUMA - Yuma Style
DYEAR=2005
DGENRE=Jazz
TTITLE0=Terribly Good
TTITLE1=Wonderment
TTITLE2=My Faborite Things
TTITLE3=On Green Dolphin Street
TTITLE4=Night and Day
TTITLE5=Smooth Samba
TTITLE6=Naima
TTITLE7=Prima's First Dance
TTITLE8=Looking Up
TTITLE9=Winter Sonata -Bonus track- ~dedicated to my mother~
EXTD=YEAR: 2005
EXTT0=
EXTT1=
EXTT2=
EXTT3=
EXTT4=
EXTT5=
EXTT6=
EXTT7=
EXTT8=
EXTT9=
PLAYORDER=
